# xmcd
#
# Track frame offsets:
#	150
#	17568
#	32373
#	49499
#	68567
#	87354
#	102478
#	117053
#	130421
#	141921
#	158185
#	175309
#	196048
#
# Disc length: 2834 seconds
# Revision: 0
# Processed by: cddbd v1.5.2PL0 Copyright (c) Steve Scherf et al.
# Submitted via: dBpowerAMP V12.0
#
DISCID=ab0b100d
DTITLE=Steve Skinner - Feel Like I Belong
DYEAR=2012
DGENRE=Blues
TTITLE0=Feel Like I Belong to You
TTITLE1=Toondah
TTITLE2=Bus Riding Blues
TTITLE3=Gave it up
TTITLE4=No Time
TTITLE5=123 Good Reasons
TTITLE6=That Loving Game Blues
TTITLE7=Whats my Number
TTITLE8=One
TTITLE9=My Name
TTITLE10=You Gotta Give it up
TTITLE11=Faces in Your Dream
TTITLE12=Crazy
EXTD=
EXTT0=
EXTT1=
EXTT2=
EXTT3=
EXTT4=
EXTT5=
EXTT6=
EXTT7=
EXTT8=
EXTT9=
EXTT10=
EXTT11=
EXTT12=
PLAYORDER=
